# xmcd
#
# Track frame offsets: 
#        150
#        14378
#        27603
#        39878
#        51918
#        64124
#        77509
#        90267
#        103645
#        115626
#        127506
#        140152
#        151728
#        165981
#        178434
#        191898
#        202053
#        215449
#        228739
#        242583
#
# Disc length: 3410 seconds
#
# Revision: 0
# Processed by: cddbd v1.5.2PL0 Copyright (c) Steve Scherf et al.
# Submitted via: ExactAudioCopy v1.1
#
DISCID=0a0d5014
DTITLE=Hownlin' Wolf - Howlin' Wolf - The Absolute Essential Collectio
DTITLE=n  cd1
DYEAR=2015
DGENRE=Blues
TTITLE0=Smokestack Lightnin'
TTITLE1=Moanin' At Midnight
TTITLE2=How many more years
TTITLE3=Riding In The Moonlight
TTITLE4=Passing by blues
TTITLE5=My baby stole off
TTITLE6=I want your picture
TTITLE7=The Wolf Is At Your Door
TTITLE8=Howlin' wolf boogie
TTITLE9=Getting old and grey
TTITLE10=Mr. Highway Man
TTITLE11=Saddle My Pony
TTITLE12=Worried All The Time
TTITLE13=Oh! Red
TTITLE14=My last affair
TTITLE15=All night boogie (All night long)
TTITLE16=I love my baby
TTITLE17=No Place To Go
TTITLE18=Rockin' daddy
TTITLE19=I'm the wolf
EXTD=
EXTT0=
EXTT1=
EXTT2=
EXTT3=
EXTT4=
EXTT5=
EXTT6=
EXTT7=
EXTT8=
EXTT9=
EXTT10=
EXTT11=
EXTT12=
EXTT13=
EXTT14=
EXTT15=
EXTT16=
EXTT17=
EXTT18=
EXTT19=
PLAYORDER=
